<?xml version="1.0" encoding="UTF-8"?>
<svg xmlns="http://www.w3.org/2000/svg" xmlns:xlink="http://www.w3.org/1999/xlink" width="40px" height="40px" viewBox="0 0 40 40" version="1.1">
<g id="surface1">
<path style=" stroke:none;fill-rule:nonzero;fill:rgb(94.509804%,96.078431%,96.862745%);fill-opacity:1;" d="M 6.019531 5.980469 L 33.980469 5.980469 L 33.980469 34.019531 L 6.019531 34.019531 Z M 6.019531 5.980469 "/>
<path style=" stroke:none;fill-rule:nonzero;fill:rgb(86.27451%,90.196078%,91.764706%);fill-opacity:1;" d="M 20 22.949219 L 33.980469 34.019531 L 33.980469 12.164062 Z M 20 22.949219 "/>
<path style=" stroke:none;fill-rule:nonzero;fill:rgb(97.254902%,26.666667%,21.568627%);fill-opacity:1;" d="M 35.144531 5.980469 L 33.980469 5.980469 L 20 17.050781 L 6.019531 5.980469 L 4.855469 5.980469 C 2.925781 5.980469 1.359375 7.550781 1.359375 9.484375 L 1.359375 30.515625 C 1.359375 32.449219 2.925781 34.019531 4.855469 34.019531 L 6.019531 34.019531 L 6.019531 12.164062 L 20 22.945312 L 33.980469 12.160156 L 33.980469 34.019531 L 35.144531 34.019531 C 37.074219 34.019531 38.640625 32.449219 38.640625 30.515625 L 38.640625 9.484375 C 38.640625 7.550781 37.074219 5.980469 35.144531 5.980469 Z M 35.144531 5.980469 "/>
</g>
</svg>
