<?xml version="1.0" encoding="UTF-8"?>
<svg xmlns="http://www.w3.org/2000/svg" xmlns:xlink="http://www.w3.org/1999/xlink" width="40px" height="40px" viewBox="0 0 40 40" version="1.1">
<g id="surface1">
<path style=" stroke:none;fill-rule:evenodd;fill:rgb(93.333333%,93.333333%,93.333333%);fill-opacity:1;" d="M 14.28125 32.03125 L 7.152344 34.296875 L 5 34.984375 L 8.03125 26.03125 C 7.523438 25.101562 7.121094 24.113281 6.832031 23.085938 C 6.484375 21.839844 6.304688 20.558594 6.304688 19.261719 C 6.304688 15.464844 7.816406 11.863281 10.511719 9.183594 C 13.21875 6.507812 16.847656 5.015625 20.660156 5.015625 C 24.464844 5.015625 28.089844 6.507812 30.796875 9.191406 C 33.488281 11.863281 35 15.46875 35 19.269531 C 35 23.070312 33.488281 26.675781 30.792969 29.347656 C 28.089844 32.027344 24.457031 33.515625 20.652344 33.515625 C 19.449219 33.515625 18.242188 33.363281 17.070312 33.0625 C 16.105469 32.816406 15.167969 32.472656 14.28125 32.03125 Z M 14.28125 32.03125 "/>
<path style=" stroke:none;fill-rule:evenodd;fill:rgb(32.941176%,80%,38.039216%);fill-opacity:1;" d="M 33.855469 19.269531 C 33.855469 15.648438 32.378906 12.371094 29.988281 10 C 27.601562 7.628906 24.300781 6.160156 20.660156 6.160156 C 17.007812 6.160156 13.710938 7.628906 11.324219 10 C 8.929688 12.371094 7.449219 15.648438 7.449219 19.261719 C 7.449219 20.480469 7.617188 21.65625 7.933594 22.777344 C 8.242188 23.890625 8.699219 24.945312 9.273438 25.914062 L 6.992188 32.671875 L 6.808594 33.203125 L 7.34375 33.035156 L 14.378906 30.796875 C 15.3125 31.292969 16.3125 31.691406 17.355469 31.957031 C 18.410156 32.226562 19.515625 32.371094 20.652344 32.371094 C 24.296875 32.371094 27.601562 30.902344 29.988281 28.53125 C 32.378906 26.160156 33.855469 22.886719 33.855469 19.269531 Z M 33.855469 19.269531 "/>
<path style=" stroke:none;fill-rule:evenodd;fill:rgb(100%,100%,99.607843%);fill-opacity:1;" d="M 18.511719 15.691406 C 18.453125 15.574219 18.121094 14.765625 17.8125 14.023438 C 17.613281 13.542969 17.425781 13.089844 17.386719 13.003906 C 17.042969 12.175781 16.65625 12.199219 16.363281 12.222656 C 16.34375 12.222656 16.324219 12.222656 16.300781 12.222656 C 16.199219 12.222656 16.09375 12.214844 15.992188 12.210938 C 15.859375 12.199219 15.726562 12.191406 15.597656 12.191406 C 15.425781 12.191406 15.195312 12.226562 14.949219 12.34375 C 14.765625 12.425781 14.582031 12.554688 14.410156 12.746094 C 14.386719 12.769531 14.363281 12.789062 14.347656 12.8125 C 13.941406 13.242188 13.046875 14.175781 13.046875 15.964844 C 13.046875 17.851562 14.410156 19.636719 14.605469 19.898438 L 14.605469 19.90625 L 14.609375 19.90625 C 14.613281 19.917969 14.644531 19.960938 14.6875 20.023438 C 15.191406 20.753906 17.496094 24.125 20.992188 25.492188 C 24.175781 26.730469 24.75 26.589844 25.261719 26.46875 C 25.347656 26.445312 25.433594 26.421875 25.523438 26.417969 C 25.941406 26.378906 26.617188 26.09375 27.191406 25.691406 C 27.667969 25.363281 28.082031 24.945312 28.242188 24.503906 C 28.382812 24.105469 28.464844 23.738281 28.5 23.4375 C 28.554688 23.003906 28.511719 22.65625 28.433594 22.523438 C 28.308594 22.320312 28.097656 22.222656 27.785156 22.074219 C 27.730469 22.046875 27.671875 22.019531 27.613281 21.992188 C 27.394531 21.878906 26.644531 21.511719 26.003906 21.210938 C 25.589844 21.015625 25.222656 20.847656 25.078125 20.792969 C 24.871094 20.71875 24.691406 20.664062 24.496094 20.6875 C 24.285156 20.714844 24.097656 20.824219 23.917969 21.089844 C 23.828125 21.222656 23.671875 21.421875 23.503906 21.628906 C 23.238281 21.957031 22.914062 22.328125 22.777344 22.484375 C 22.71875 22.550781 22.667969 22.589844 22.617188 22.59375 C 22.550781 22.601562 22.457031 22.574219 22.328125 22.511719 C 22.242188 22.464844 22.160156 22.433594 22.058594 22.386719 C 21.550781 22.171875 20.5625 21.746094 19.4375 20.746094 C 19.035156 20.390625 18.683594 20 18.386719 19.636719 C 17.90625 19.046875 17.582031 18.515625 17.457031 18.292969 C 17.347656 18.121094 17.464844 18.007812 17.566406 17.902344 C 17.683594 17.785156 17.8125 17.628906 17.945312 17.472656 C 18.003906 17.398438 18.0625 17.332031 18.136719 17.25 L 18.136719 17.242188 C 18.316406 17.042969 18.386719 16.890625 18.488281 16.691406 C 18.503906 16.652344 18.519531 16.617188 18.539062 16.578125 C 18.628906 16.40625 18.648438 16.238281 18.632812 16.082031 C 18.617188 15.9375 18.570312 15.808594 18.511719 15.691406 Z M 18.511719 15.691406 "/>
</g>
</svg>
